<svg width="532" height="46" viewBox="0 0 532 46" fill="none" xmlns="http://www.w3.org/2000/svg">
<path d="M10.328 35V7.376H0.8V1.4H26.12V7.376H16.544V35H10.328ZM28.4784 35V10.472H34.4784V13.112C34.9264 12.168 35.6304 11.4 36.5904 10.808C37.5504 10.2 38.5584 9.896 39.6144 9.896C41.3584 9.896 42.8304 10.496 44.0304 11.696L43.1904 17.192C42.5344 16.648 41.8944 16.264 41.2704 16.04C40.6464 15.816 39.9584 15.704 39.2064 15.704C38.2144 15.704 37.3664 15.936 36.6624 16.4C35.9584 16.864 35.4144 17.536 35.0304 18.416C34.6624 19.296 34.4784 20.352 34.4784 21.584V35H28.4784ZM55.1795 35.576C52.5075 35.576 50.3875 34.856 48.8195 33.416C47.2675 31.96 46.4915 29.992 46.4915 27.512C46.4915 25.912 46.8915 24.512 47.6915 23.312C48.5075 22.096 49.6355 21.16 51.0755 20.504C52.5315 19.832 54.2275 19.496 56.1635 19.496C57.2355 19.496 58.2675 19.6 59.2595 19.808C60.2675 20 61.1475 20.28 61.8995 20.648V19.112C61.8995 17.736 61.5075 16.704 60.7235 16.016C59.9555 15.312 58.8195 14.96 57.3155 14.96C56.1155 14.96 54.8835 15.176 53.6195 15.608C52.3555 16.04 51.0755 16.68 49.7795 17.528L47.9795 12.8C49.3875 11.872 50.9555 11.16 52.6835 10.664C54.4115 10.152 56.1555 9.896 57.9155 9.896C61.2115 9.896 63.6755 10.68 65.3075 12.248C66.9395 13.8 67.7555 16.12 67.7555 19.208V35H61.8995V33.032C61.0675 33.864 60.0755 34.496 58.9235 34.928C57.7875 35.36 56.5395 35.576 55.1795 35.576ZM56.5715 30.512C57.5635 30.512 58.5155 30.32 59.4275 29.936C60.3555 29.536 61.1795 28.976 61.8995 28.256V25.352C61.2115 25.016 60.4435 24.76 59.5955 24.584C58.7635 24.392 57.9315 24.296 57.0995 24.296C55.6115 24.296 54.4355 24.584 53.5715 25.16C52.7235 25.72 52.2995 26.504 52.2995 27.512C52.2995 28.456 52.6755 29.192 53.4275 29.72C54.1795 30.248 55.2275 30.512 56.5715 30.512ZM74.9315 35V10.472H80.9315V12.824C81.7155 11.848 82.6515 11.12 83.7395 10.64C84.8435 10.144 86.0995 9.896 87.5075 9.896C90.2435 9.896 92.3555 10.744 93.8435 12.44C95.3315 14.12 96.0755 16.544 96.0755 19.712V35H90.0995V21.56C90.0995 19.496 89.7395 17.992 89.0195 17.048C88.3155 16.088 87.2115 15.608 85.7075 15.608C84.0755 15.608 82.8675 16.088 82.0835 17.048C81.3155 17.992 80.9315 19.464 80.9315 21.464V35H74.9315ZM111.354 35.576C109.434 35.576 107.594 35.168 105.834 34.352C104.09 33.536 102.706 32.44 101.682 31.064L105.618 27.752C106.434 28.616 107.378 29.304 108.45 29.816C109.522 30.312 110.546 30.56 111.522 30.56C112.738 30.56 113.674 30.36 114.33 29.96C114.986 29.544 115.314 28.968 115.314 28.232C115.314 27.752 115.154 27.328 114.834 26.96C114.53 26.576 113.986 26.192 113.202 25.808C112.418 25.408 111.314 24.952 109.89 24.44C107.138 23.432 105.186 22.344 104.034 21.176C102.882 19.992 102.306 18.496 102.306 16.688C102.306 14.672 103.122 13.04 104.754 11.792C106.386 10.528 108.514 9.896 111.138 9.896C112.93 9.896 114.578 10.232 116.082 10.904C117.602 11.576 118.906 12.56 119.994 13.856L116.082 17.096C114.642 15.64 112.962 14.912 111.042 14.912C110.066 14.912 109.282 15.096 108.69 15.464C108.098 15.816 107.802 16.296 107.802 16.904C107.802 17.496 108.146 18.024 108.834 18.488C109.538 18.952 110.842 19.496 112.746 20.12C114.634 20.712 116.162 21.384 117.33 22.136C118.514 22.888 119.378 23.76 119.922 24.752C120.482 25.744 120.762 26.888 120.762 28.184C120.762 30.488 119.922 32.296 118.242 33.608C116.578 34.92 114.282 35.576 111.354 35.576ZM127.203 35V3.056L133.203 0.343997V35H127.203ZM148.18 35.576C145.508 35.576 143.388 34.856 141.82 33.416C140.268 31.96 139.492 29.992 139.492 27.512C139.492 25.912 139.892 24.512 140.692 23.312C141.508 22.096 142.636 21.16 144.076 20.504C145.532 19.832 147.228 19.496 149.164 19.496C150.236 19.496 151.268 19.6 152.26 19.808C153.268 20 154.148 20.28 154.9 20.648V19.112C154.9 17.736 154.508 16.704 153.724 16.016C152.956 15.312 151.82 14.96 150.316 14.96C149.116 14.96 147.884 15.176 146.62 15.608C145.356 16.04 144.076 16.68 142.78 17.528L140.98 12.8C142.388 11.872 143.956 11.16 145.684 10.664C147.412 10.152 149.156 9.896 150.916 9.896C154.212 9.896 156.676 10.68 158.308 12.248C159.94 13.8 160.756 16.12 160.756 19.208V35H154.9V33.032C154.068 33.864 153.076 34.496 151.924 34.928C150.788 35.36 149.54 35.576 148.18 35.576ZM149.572 30.512C150.564 30.512 151.516 30.32 152.428 29.936C153.356 29.536 154.18 28.976 154.9 28.256V25.352C154.212 25.016 153.444 24.76 152.596 24.584C151.764 24.392 150.932 24.296 150.1 24.296C148.612 24.296 147.436 24.584 146.572 25.16C145.724 25.72 145.3 26.504 145.3 27.512C145.3 28.456 145.676 29.192 146.428 29.72C147.18 30.248 148.228 30.512 149.572 30.512ZM174.099 35.576C172.147 35.576 170.683 35.04 169.707 33.968C168.731 32.896 168.243 31.296 168.243 29.168V15.728H164.667V10.472H168.243V3.2L174.195 0.343997V10.472H179.763V15.728H174.195V28.088C174.195 28.856 174.347 29.424 174.651 29.792C174.971 30.16 175.467 30.344 176.139 30.344C177.323 30.344 178.619 29.976 180.027 29.24L179.331 34.472C178.595 34.84 177.795 35.112 176.931 35.288C176.067 35.48 175.123 35.576 174.099 35.576ZM184.901 35V10.472H190.901V35H184.901ZM187.901 7.4C186.941 7.4 186.109 7.056 185.405 6.368C184.717 5.664 184.373 4.832 184.373 3.872C184.373 2.912 184.717 2.096 185.405 1.424C186.093 0.735999 186.925 0.391999 187.901 0.391999C188.909 0.391999 189.749 0.727999 190.421 1.4C191.093 2.072 191.429 2.896 191.429 3.872C191.429 4.848 191.085 5.68 190.397 6.368C189.725 7.056 188.893 7.4 187.901 7.4ZM208.335 35.576C204.879 35.576 202.151 34.432 200.151 32.144C198.151 29.856 197.151 26.728 197.151 22.76C197.151 20.136 197.607 17.864 198.519 15.944C199.431 14.008 200.719 12.52 202.383 11.48C204.063 10.424 206.047 9.896 208.335 9.896C210.607 9.896 212.575 10.416 214.239 11.456C215.903 12.496 217.183 13.976 218.079 15.896C218.975 17.816 219.423 20.096 219.423 22.736C219.423 25.392 218.975 27.68 218.079 29.6C217.199 31.52 215.927 33 214.263 34.04C212.599 35.064 210.623 35.576 208.335 35.576ZM208.335 29.84C209.951 29.84 211.207 29.216 212.103 27.968C212.999 26.72 213.447 24.976 213.447 22.736C213.447 20.496 212.991 18.752 212.079 17.504C211.183 16.24 209.935 15.608 208.335 15.608C206.719 15.608 205.455 16.24 204.543 17.504C203.631 18.768 203.175 20.52 203.175 22.76C203.175 24.968 203.631 26.704 204.543 27.968C205.455 29.216 206.719 29.84 208.335 29.84ZM225.166 35V10.472H231.166V12.824C231.95 11.848 232.886 11.12 233.974 10.64C235.078 10.144 236.334 9.896 237.742 9.896C240.478 9.896 242.59 10.744 244.078 12.44C245.566 14.12 246.31 16.544 246.31 19.712V35H240.334V21.56C240.334 19.496 239.974 17.992 239.254 17.048C238.55 16.088 237.446 15.608 235.942 15.608C234.31 15.608 233.102 16.088 232.318 17.048C231.55 17.992 231.166 19.464 231.166 21.464V35H225.166ZM261.588 35.576C259.668 35.576 257.828 35.168 256.068 34.352C254.324 33.536 252.94 32.44 251.916 31.064L255.852 27.752C256.668 28.616 257.612 29.304 258.684 29.816C259.756 30.312 260.78 30.56 261.756 30.56C262.972 30.56 263.908 30.36 264.564 29.96C265.22 29.544 265.548 28.968 265.548 28.232C265.548 27.752 265.388 27.328 265.068 26.96C264.764 26.576 264.22 26.192 263.436 25.808C262.652 25.408 261.548 24.952 260.124 24.44C257.372 23.432 255.42 22.344 254.268 21.176C253.116 19.992 252.54 18.496 252.54 16.688C252.54 14.672 253.356 13.04 254.988 11.792C256.62 10.528 258.748 9.896 261.372 9.896C263.164 9.896 264.812 10.232 266.316 10.904C267.836 11.576 269.14 12.56 270.228 13.856L266.316 17.096C264.876 15.64 263.196 14.912 261.276 14.912C260.3 14.912 259.516 15.096 258.924 15.464C258.332 15.816 258.036 16.296 258.036 16.904C258.036 17.496 258.38 18.024 259.068 18.488C259.772 18.952 261.076 19.496 262.98 20.12C264.868 20.712 266.396 21.384 267.564 22.136C268.748 22.888 269.612 23.76 270.156 24.752C270.716 25.744 270.996 26.888 270.996 28.184C270.996 30.488 270.156 32.296 268.476 33.608C266.812 34.92 264.516 35.576 261.588 35.576Z" fill="white"/>
<path d="M289.437 35V1.4H300.765C303.677 1.4 306.157 1.88 308.205 2.84C310.253 3.784 311.909 5.064 313.173 6.68C314.453 8.28 315.381 10.08 315.957 12.08C316.549 14.064 316.845 16.104 316.845 18.2C316.845 20.12 316.565 22.064 316.005 24.032C315.461 26 314.565 27.816 313.317 29.48C312.069 31.128 310.397 32.464 308.301 33.488C306.221 34.496 303.645 35 300.573 35H289.437ZM295.653 29.096H301.221C302.933 29.096 304.373 28.776 305.541 28.136C306.709 27.48 307.645 26.624 308.349 25.568C309.069 24.496 309.589 23.32 309.909 22.04C310.245 20.744 310.413 19.464 310.413 18.2C310.413 16.856 310.245 15.536 309.909 14.24C309.573 12.944 309.053 11.768 308.349 10.712C307.645 9.656 306.749 8.816 305.661 8.192C304.573 7.568 303.269 7.256 301.749 7.256H295.653V29.096ZM332.46 35.576C329.004 35.576 326.276 34.432 324.276 32.144C322.276 29.856 321.276 26.728 321.276 22.76C321.276 20.136 321.732 17.864 322.644 15.944C323.556 14.008 324.844 12.52 326.508 11.48C328.188 10.424 330.172 9.896 332.46 9.896C334.732 9.896 336.7 10.416 338.364 11.456C340.028 12.496 341.308 13.976 342.204 15.896C343.1 17.816 343.548 20.096 343.548 22.736C343.548 25.392 343.1 27.68 342.204 29.6C341.324 31.52 340.052 33 338.388 34.04C336.724 35.064 334.748 35.576 332.46 35.576ZM332.46 29.84C334.076 29.84 335.332 29.216 336.228 27.968C337.124 26.72 337.572 24.976 337.572 22.736C337.572 20.496 337.116 18.752 336.204 17.504C335.308 16.24 334.06 15.608 332.46 15.608C330.844 15.608 329.58 16.24 328.668 17.504C327.756 18.768 327.3 20.52 327.3 22.76C327.3 24.968 327.756 26.704 328.668 27.968C329.58 29.216 330.844 29.84 332.46 29.84ZM349.291 35V10.472H355.291V12.824C356.075 11.848 357.011 11.12 358.099 10.64C359.203 10.144 360.459 9.896 361.867 9.896C364.603 9.896 366.715 10.744 368.203 12.44C369.691 14.12 370.435 16.544 370.435 19.712V35H364.459V21.56C364.459 19.496 364.099 17.992 363.379 17.048C362.675 16.088 361.571 15.608 360.067 15.608C358.435 15.608 357.227 16.088 356.443 17.048C355.675 17.992 355.291 19.464 355.291 21.464V35H349.291ZM388.036 35.576C385.684 35.576 383.652 35.048 381.94 33.992C380.244 32.936 378.932 31.448 378.004 29.528C377.092 27.592 376.636 25.32 376.636 22.712C376.636 20.072 377.1 17.792 378.028 15.872C378.972 13.952 380.292 12.48 381.988 11.456C383.7 10.416 385.716 9.896 388.036 9.896C390.02 9.896 391.82 10.312 393.436 11.144C395.052 11.976 396.34 13.256 397.3 14.984C398.26 16.696 398.74 18.88 398.74 21.536C398.74 21.952 398.724 22.464 398.692 23.072C398.676 23.664 398.636 24.264 398.572 24.872H382.564C382.628 25.992 382.884 26.976 383.332 27.824C383.796 28.656 384.428 29.304 385.228 29.768C386.028 30.232 386.972 30.464 388.06 30.464C389.228 30.464 390.244 30.272 391.108 29.888C391.972 29.488 392.788 28.856 393.556 27.992L397.012 31.568C395.956 32.768 394.684 33.736 393.196 34.472C391.708 35.208 389.988 35.576 388.036 35.576ZM382.588 20.192H392.932C392.852 19.12 392.612 18.2 392.212 17.432C391.812 16.648 391.252 16.048 390.532 15.632C389.812 15.216 388.94 15.008 387.916 15.008C386.508 15.008 385.308 15.44 384.316 16.304C383.324 17.168 382.748 18.464 382.588 20.192ZM416.89 35V1.4H432.178C434.978 1.4 437.186 1.888 438.802 2.864C440.434 3.824 441.594 5.096 442.282 6.68C442.986 8.264 443.338 9.968 443.338 11.792C443.338 13.056 443.09 14.336 442.594 15.632C442.114 16.928 441.378 18.096 440.386 19.136C439.394 20.176 438.146 20.944 436.642 21.44L443.266 35H436.282L429.922 22.28H423.106V35H416.89ZM423.106 16.424H432.274C433.442 16.424 434.362 16.208 435.034 15.776C435.722 15.328 436.21 14.752 436.498 14.048C436.786 13.344 436.93 12.6 436.93 11.816C436.93 11.112 436.794 10.408 436.522 9.704C436.25 9 435.778 8.416 435.106 7.952C434.434 7.488 433.49 7.256 432.274 7.256H423.106V16.424ZM449.792 35V10.472H455.792V35H449.792ZM452.792 7.4C451.832 7.4 451 7.056 450.296 6.368C449.608 5.664 449.264 4.832 449.264 3.872C449.264 2.912 449.608 2.096 450.296 1.424C450.984 0.735999 451.816 0.391999 452.792 0.391999C453.8 0.391999 454.64 0.727999 455.312 1.4C455.984 2.072 456.32 2.896 456.32 3.872C456.32 4.848 455.976 5.68 455.288 6.368C454.616 7.056 453.784 7.4 452.792 7.4ZM472.002 45.224L468.69 40.208C471.026 40.032 472.834 39.768 474.114 39.416C475.41 39.064 476.314 38.56 476.826 37.904C477.338 37.248 477.594 36.392 477.594 35.336V33.56C476.346 34.904 474.586 35.576 472.314 35.576C470.186 35.576 468.354 35.064 466.818 34.04C465.282 33 464.098 31.52 463.266 29.6C462.45 27.664 462.042 25.368 462.042 22.712C462.042 20.12 462.466 17.864 463.314 15.944C464.178 14.024 465.378 12.536 466.914 11.48C468.466 10.424 470.282 9.896 472.362 9.896C473.45 9.896 474.442 10.064 475.338 10.4C476.25 10.736 477.002 11.224 477.594 11.864V10.472H483.57V32.792C483.57 34.968 483.37 36.808 482.97 38.312C482.57 39.816 481.914 41.048 481.002 42.008C480.106 42.968 478.922 43.696 477.45 44.192C475.978 44.704 474.162 45.048 472.002 45.224ZM473.298 29.84C474.146 29.84 474.938 29.648 475.674 29.264C476.426 28.864 477.066 28.328 477.594 27.656V17.768C477.146 17.144 476.53 16.632 475.746 16.232C474.962 15.816 474.17 15.608 473.37 15.608C471.642 15.608 470.322 16.216 469.41 17.432C468.514 18.632 468.066 20.392 468.066 22.712C468.066 24.216 468.266 25.504 468.666 26.576C469.082 27.632 469.682 28.44 470.466 29C471.25 29.56 472.194 29.84 473.298 29.84ZM491.041 35V3.104L497.041 0.343997V12.848C497.825 11.856 498.761 11.12 499.849 10.64C500.953 10.144 502.209 9.896 503.617 9.896C505.505 9.896 507.081 10.296 508.345 11.096C509.625 11.88 510.585 13.008 511.225 14.48C511.865 15.936 512.185 17.68 512.185 19.712V35H506.209V21.56C506.209 19.544 505.865 18.048 505.177 17.072C504.489 16.096 503.369 15.608 501.817 15.608C500.185 15.608 498.977 16.088 498.193 17.048C497.425 17.992 497.041 19.464 497.041 21.464V35H491.041ZM525.896 35.576C523.944 35.576 522.48 35.04 521.504 33.968C520.528 32.896 520.04 31.296 520.04 29.168V15.728H516.464V10.472H520.04V3.2L525.992 0.343997V10.472H531.56V15.728H525.992V28.088C525.992 28.856 526.144 29.424 526.448 29.792C526.768 30.16 527.264 30.344 527.936 30.344C529.12 30.344 530.416 29.976 531.824 29.24L531.128 34.472C530.392 34.84 529.592 35.112 528.728 35.288C527.864 35.48 526.92 35.576 525.896 35.576Z" fill="url(#paint0_linear_479_466)"/>
<defs>
<linearGradient id="paint0_linear_479_466" x1="-1" y1="10.5" x2="556" y2="22.9999" gradientUnits="userSpaceOnUse">
<stop stop-color="#FE3688"/>
<stop offset="0.276042" stop-color="#73BCFF"/>
<stop offset="0.5" stop-color="#B9DCFF"/>
<stop offset="0.765625" stop-color="#FE3688"/>
<stop offset="1" stop-color="#EF1D1D"/>
</linearGradient>
</defs>
</svg>
