<svg width="116" height="36" viewBox="0 0 116 36" fill="none" xmlns="http://www.w3.org/2000/svg">
<path d="M5.816 35V9.92H0.656V5.048C1.728 5.048 2.696 4.936 3.56 4.712C4.424 4.488 5.152 4.112 5.744 3.584C6.352 3.056 6.808 2.328 7.112 1.4H12.032V35H5.816ZM34.0108 35.576C31.6108 35.576 29.6188 35.072 28.0348 34.064C26.4508 33.04 25.1948 31.68 24.2668 29.984C23.3388 28.288 22.6748 26.416 22.2748 24.368C21.8908 22.32 21.6988 20.264 21.6988 18.2C21.6988 16.568 21.8188 14.928 22.0588 13.28C22.2988 11.616 22.6908 10.04 23.2348 8.552C23.7948 7.064 24.5468 5.744 25.4908 4.592C26.4348 3.424 27.6028 2.504 28.9948 1.832C30.4028 1.16 32.0748 0.823999 34.0108 0.823999C36.3948 0.823999 38.3788 1.328 39.9628 2.336C41.5628 3.344 42.8188 4.688 43.7308 6.368C44.6588 8.048 45.3148 9.92 45.6988 11.984C46.0988 14.032 46.2988 16.104 46.2988 18.2C46.2988 19.832 46.1788 21.472 45.9388 23.12C45.6988 24.768 45.2988 26.336 44.7388 27.824C44.1788 29.312 43.4268 30.64 42.4828 31.808C41.5388 32.976 40.3708 33.896 38.9788 34.568C37.5868 35.24 35.9308 35.576 34.0108 35.576ZM34.0108 29.72C35.1948 29.72 36.1708 29.392 36.9388 28.736C37.7228 28.064 38.3388 27.176 38.7868 26.072C39.2508 24.968 39.5788 23.736 39.7708 22.376C39.9628 21.016 40.0588 19.624 40.0588 18.2C40.0588 16.76 39.9548 15.36 39.7468 14C39.5548 12.64 39.2348 11.408 38.7868 10.304C38.3388 9.184 37.7228 8.304 36.9388 7.664C36.1708 7.008 35.1948 6.68 34.0108 6.68C32.8108 6.68 31.8188 7.008 31.0348 7.664C30.2508 8.32 29.6268 9.208 29.1628 10.328C28.6988 11.432 28.3708 12.664 28.1788 14.024C27.9868 15.384 27.8908 16.776 27.8908 18.2C27.8908 19.624 27.9868 21.024 28.1788 22.4C28.3708 23.76 28.6988 24.992 29.1628 26.096C29.6268 27.2 30.2508 28.08 31.0348 28.736C31.8348 29.392 32.8268 29.72 34.0108 29.72ZM69.2056 35.576L60.6136 16.856C60.5016 16.616 60.3816 16.336 60.2536 16.016C60.1256 15.696 60.0136 15.376 59.9176 15.056C59.9336 15.312 59.9416 15.616 59.9416 15.968C59.9576 16.32 59.9656 16.632 59.9656 16.904V35H53.7496V1.4H59.9656L68.4856 20.456C68.6456 20.808 68.7896 21.16 68.9176 21.512C69.0616 21.848 69.1976 22.2 69.3256 22.568C69.4536 22.2 69.5816 21.84 69.7096 21.488C69.8376 21.136 69.9736 20.792 70.1176 20.456L78.8056 1.4H84.6376V35H78.4216V16.856C78.4216 16.568 78.4216 16.248 78.4216 15.896C78.4376 15.544 78.4456 15.256 78.4456 15.032C78.3496 15.32 78.2296 15.632 78.0856 15.968C77.9576 16.288 77.8296 16.584 77.7016 16.856L69.2056 35.576ZM100.865 29.816V21.44H92.609V15.632H100.865V7.256H106.889V15.632H115.169V21.44H106.889V29.816H100.865Z" fill="url(#paint0_linear_479_454)"/>
<defs>
<linearGradient id="paint0_linear_479_454" x1="-1" y1="23" x2="120" y2="23" gradientUnits="userSpaceOnUse">
<stop stop-color="#FE3688"/>
<stop offset="1" stop-color="#73BCFF"/>
</linearGradient>
</defs>
</svg>
