<svg width="75" height="35" viewBox="0 0 75 35" fill="none" xmlns="http://www.w3.org/2000/svg">
<path d="M5.816 34V8.92H0.656V4.048C1.728 4.048 2.696 3.936 3.56 3.712C4.424 3.488 5.152 3.112 5.744 2.584C6.352 2.056 6.808 1.328 7.112 0.399998H12.032V34H5.816ZM31.7308 34.576C30.0348 34.576 28.5068 34.4 27.1468 34.048C25.7868 33.712 24.6028 33.28 23.5948 32.752C22.5868 32.208 21.7628 31.664 21.1228 31.12L24.4588 26.248C25.0348 26.68 25.6748 27.088 26.3788 27.472C27.0988 27.84 27.8908 28.144 28.7548 28.384C29.6348 28.624 30.6188 28.744 31.7068 28.744C33.0028 28.744 34.1388 28.504 35.1148 28.024C36.1068 27.544 36.8828 26.864 37.4428 25.984C38.0028 25.104 38.2828 24.064 38.2828 22.864C38.2828 21.824 38.0828 20.912 37.6828 20.128C37.2988 19.328 36.7388 18.704 36.0028 18.256C35.2828 17.792 34.3948 17.56 33.3388 17.56C32.0108 17.56 30.8988 17.8 30.0028 18.28C29.1068 18.744 28.3308 19.352 27.6748 20.104L22.1548 17.44L23.3068 0.399998H42.3628V6.328H28.9708L28.3708 12.952C29.1388 12.568 29.9468 12.264 30.7948 12.04C31.6428 11.8 32.5468 11.68 33.5068 11.68C35.8588 11.68 37.8508 12.176 39.4828 13.168C41.1308 14.16 42.3788 15.496 43.2268 17.176C44.0908 18.856 44.5228 20.728 44.5228 22.792C44.5228 25.128 43.9708 27.184 42.8668 28.96C41.7788 30.72 40.2748 32.096 38.3548 33.088C36.4348 34.08 34.2268 34.576 31.7308 34.576ZM59.8025 28.816V20.44H51.5465V14.632H59.8025V6.256H65.8265V14.632H74.1065V20.44H65.8265V28.816H59.8025Z" fill="url(#paint0_linear_479_455)"/>
<defs>
<linearGradient id="paint0_linear_479_455" x1="-53.5" y1="22" x2="107" y2="22" gradientUnits="userSpaceOnUse">
<stop stop-color="#FE3688"/>
<stop offset="1" stop-color="#73BCFF"/>
</linearGradient>
</defs>
</svg>
