<svg width="156" height="36" viewBox="0 0 156 36" fill="none" xmlns="http://www.w3.org/2000/svg">
<path d="M11.512 35.576C9.816 35.576 8.288 35.4 6.928 35.048C5.568 34.712 4.384 34.28 3.376 33.752C2.368 33.208 1.544 32.664 0.904 32.12L4.24 27.248C4.816 27.68 5.456 28.088 6.16 28.472C6.88 28.84 7.672 29.144 8.536 29.384C9.416 29.624 10.4 29.744 11.488 29.744C12.784 29.744 13.92 29.504 14.896 29.024C15.888 28.544 16.664 27.864 17.224 26.984C17.784 26.104 18.064 25.064 18.064 23.864C18.064 22.824 17.864 21.912 17.464 21.128C17.08 20.328 16.52 19.704 15.784 19.256C15.064 18.792 14.176 18.56 13.12 18.56C11.792 18.56 10.68 18.8 9.784 19.28C8.888 19.744 8.112 20.352 7.456 21.104L1.936 18.44L3.088 1.4H22.144V7.328H8.752L8.152 13.952C8.92 13.568 9.728 13.264 10.576 13.04C11.424 12.8 12.328 12.68 13.288 12.68C15.64 12.68 17.632 13.176 19.264 14.168C20.912 15.16 22.16 16.496 23.008 18.176C23.872 19.856 24.304 21.728 24.304 23.792C24.304 26.128 23.752 28.184 22.648 29.96C21.56 31.72 20.056 33.096 18.136 34.088C16.216 35.08 14.008 35.576 11.512 35.576ZM43.042 35.576C40.642 35.576 38.65 35.072 37.066 34.064C35.482 33.04 34.226 31.68 33.298 29.984C32.37 28.288 31.706 26.416 31.306 24.368C30.922 22.32 30.73 20.264 30.73 18.2C30.73 16.568 30.85 14.928 31.09 13.28C31.33 11.616 31.722 10.04 32.266 8.552C32.826 7.064 33.578 5.744 34.522 4.592C35.466 3.424 36.634 2.504 38.026 1.832C39.434 1.16 41.106 0.823999 43.042 0.823999C45.426 0.823999 47.41 1.328 48.994 2.336C50.594 3.344 51.85 4.688 52.762 6.368C53.69 8.048 54.346 9.92 54.73 11.984C55.13 14.032 55.33 16.104 55.33 18.2C55.33 19.832 55.21 21.472 54.97 23.12C54.73 24.768 54.33 26.336 53.77 27.824C53.21 29.312 52.458 30.64 51.514 31.808C50.57 32.976 49.402 33.896 48.01 34.568C46.618 35.24 44.962 35.576 43.042 35.576ZM43.042 29.72C44.226 29.72 45.202 29.392 45.97 28.736C46.754 28.064 47.37 27.176 47.818 26.072C48.282 24.968 48.61 23.736 48.802 22.376C48.994 21.016 49.09 19.624 49.09 18.2C49.09 16.76 48.986 15.36 48.778 14C48.586 12.64 48.266 11.408 47.818 10.304C47.37 9.184 46.754 8.304 45.97 7.664C45.202 7.008 44.226 6.68 43.042 6.68C41.842 6.68 40.85 7.008 40.066 7.664C39.282 8.32 38.658 9.208 38.194 10.328C37.73 11.432 37.402 12.664 37.21 14.024C37.018 15.384 36.922 16.776 36.922 18.2C36.922 19.624 37.018 21.024 37.21 22.4C37.402 23.76 37.73 24.992 38.194 26.096C38.658 27.2 39.282 28.08 40.066 28.736C40.866 29.392 41.858 29.72 43.042 29.72ZM74.7764 35.576C72.3764 35.576 70.3844 35.072 68.8004 34.064C67.2164 33.04 65.9604 31.68 65.0324 29.984C64.1044 28.288 63.4404 26.416 63.0404 24.368C62.6564 22.32 62.4644 20.264 62.4644 18.2C62.4644 16.568 62.5844 14.928 62.8244 13.28C63.0644 11.616 63.4564 10.04 64.0004 8.552C64.5604 7.064 65.3124 5.744 66.2564 4.592C67.2004 3.424 68.3684 2.504 69.7604 1.832C71.1684 1.16 72.8404 0.823999 74.7764 0.823999C77.1604 0.823999 79.1444 1.328 80.7284 2.336C82.3284 3.344 83.5844 4.688 84.4964 6.368C85.4244 8.048 86.0804 9.92 86.4644 11.984C86.8644 14.032 87.0644 16.104 87.0644 18.2C87.0644 19.832 86.9444 21.472 86.7044 23.12C86.4644 24.768 86.0644 26.336 85.5044 27.824C84.9444 29.312 84.1924 30.64 83.2484 31.808C82.3044 32.976 81.1364 33.896 79.7444 34.568C78.3524 35.24 76.6964 35.576 74.7764 35.576ZM74.7764 29.72C75.9604 29.72 76.9364 29.392 77.7044 28.736C78.4884 28.064 79.1044 27.176 79.5524 26.072C80.0164 24.968 80.3444 23.736 80.5364 22.376C80.7284 21.016 80.8244 19.624 80.8244 18.2C80.8244 16.76 80.7204 15.36 80.5124 14C80.3204 12.64 80.0004 11.408 79.5524 10.304C79.1044 9.184 78.4884 8.304 77.7044 7.664C76.9364 7.008 75.9604 6.68 74.7764 6.68C73.5764 6.68 72.5844 7.008 71.8004 7.664C71.0164 8.32 70.3924 9.208 69.9284 10.328C69.4644 11.432 69.1364 12.664 68.9444 14.024C68.7524 15.384 68.6564 16.776 68.6564 18.2C68.6564 19.624 68.7524 21.024 68.9444 22.4C69.1364 23.76 69.4644 24.992 69.9284 26.096C70.3924 27.2 71.0164 28.08 71.8004 28.736C72.6004 29.392 73.5924 29.72 74.7764 29.72ZM109.971 35.576L101.379 16.856C101.267 16.616 101.147 16.336 101.019 16.016C100.891 15.696 100.779 15.376 100.683 15.056C100.699 15.312 100.707 15.616 100.707 15.968C100.723 16.32 100.731 16.632 100.731 16.904V35H94.5153V1.4H100.731L109.251 20.456C109.411 20.808 109.555 21.16 109.683 21.512C109.827 21.848 109.963 22.2 110.091 22.568C110.219 22.2 110.347 21.84 110.475 21.488C110.603 21.136 110.739 20.792 110.883 20.456L119.571 1.4H125.403V35H119.187V16.856C119.187 16.568 119.187 16.248 119.187 15.896C119.203 15.544 119.211 15.256 119.211 15.032C119.115 15.32 118.995 15.632 118.851 15.968C118.723 16.288 118.595 16.584 118.467 16.856L109.971 35.576ZM141.631 29.816V21.44H133.375V15.632H141.631V7.256H147.655V15.632H155.935V21.44H147.655V29.816H141.631Z" fill="url(#paint0_linear_479_456)"/>
<defs>
<linearGradient id="paint0_linear_479_456" x1="-10" y1="23" x2="160" y2="23" gradientUnits="userSpaceOnUse">
<stop stop-color="#FE3688"/>
<stop offset="1" stop-color="#73BCFF"/>
</linearGradient>
</defs>
</svg>
