<svg width="796" height="36" viewBox="0 0 796 36" fill="none" xmlns="http://www.w3.org/2000/svg">
<path d="M0.984 35V1.4H7.2V35H0.984ZM14.9003 35V10.472H20.9003V12.824C21.6843 11.848 22.6203 11.12 23.7083 10.64C24.8123 10.144 26.0683 9.896 27.4763 9.896C30.2123 9.896 32.3243 10.744 33.8123 12.44C35.3003 14.12 36.0443 16.544 36.0443 19.712V35H30.0683V21.56C30.0683 19.496 29.7083 17.992 28.9883 17.048C28.2843 16.088 27.1803 15.608 25.6763 15.608C24.0443 15.608 22.8363 16.088 22.0523 17.048C21.2843 17.992 20.9003 19.464 20.9003 21.464V35H14.9003ZM53.2609 35.576C51.0049 35.576 49.0529 35.056 47.4049 34.016C45.7569 32.976 44.4849 31.504 43.5889 29.6C42.6929 27.68 42.2449 25.4 42.2449 22.76C42.2449 20.12 42.6929 17.84 43.5889 15.92C44.5009 14 45.7889 12.52 47.4529 11.48C49.1169 10.424 51.0769 9.896 53.3329 9.896C55.8769 9.896 57.9889 10.488 59.6689 11.672C61.3649 12.84 62.5889 14.576 63.3409 16.88L57.6529 18.8C57.2689 17.776 56.7089 16.992 55.9729 16.448C55.2369 15.888 54.3889 15.608 53.4289 15.608C51.8769 15.608 50.6369 16.248 49.7089 17.528C48.7969 18.808 48.3409 20.552 48.3409 22.76C48.3409 24.936 48.7889 26.664 49.6849 27.944C50.5809 29.224 51.7889 29.864 53.3089 29.864C54.3809 29.864 55.2929 29.56 56.0449 28.952C56.8129 28.344 57.3809 27.456 57.7489 26.288L63.4129 27.992C62.6929 30.504 61.4689 32.4 59.7409 33.68C58.0289 34.944 55.8689 35.576 53.2609 35.576ZM69.2753 35V10.472H75.2753V13.112C75.7233 12.168 76.4273 11.4 77.3873 10.808C78.3473 10.2 79.3553 9.896 80.4113 9.896C82.1553 9.896 83.6273 10.496 84.8273 11.696L83.9873 17.192C83.3313 16.648 82.6913 16.264 82.0673 16.04C81.4433 15.816 80.7553 15.704 80.0033 15.704C79.0113 15.704 78.1633 15.936 77.4593 16.4C76.7553 16.864 76.2113 17.536 75.8273 18.416C75.4593 19.296 75.2753 20.352 75.2753 21.584V35H69.2753ZM98.0824 35.576C95.7304 35.576 93.6984 35.048 91.9864 33.992C90.2904 32.936 88.9784 31.448 88.0504 29.528C87.1384 27.592 86.6824 25.32 86.6824 22.712C86.6824 20.072 87.1464 17.792 88.0744 15.872C89.0184 13.952 90.3384 12.48 92.0344 11.456C93.7464 10.416 95.7624 9.896 98.0824 9.896C100.066 9.896 101.866 10.312 103.482 11.144C105.098 11.976 106.386 13.256 107.346 14.984C108.306 16.696 108.786 18.88 108.786 21.536C108.786 21.952 108.77 22.464 108.738 23.072C108.722 23.664 108.682 24.264 108.618 24.872H92.6104C92.6744 25.992 92.9304 26.976 93.3784 27.824C93.8424 28.656 94.4744 29.304 95.2744 29.768C96.0744 30.232 97.0184 30.464 98.1064 30.464C99.2744 30.464 100.29 30.272 101.154 29.888C102.018 29.488 102.834 28.856 103.602 27.992L107.058 31.568C106.002 32.768 104.73 33.736 103.242 34.472C101.754 35.208 100.034 35.576 98.0824 35.576ZM92.6344 20.192H102.978C102.898 19.12 102.658 18.2 102.258 17.432C101.858 16.648 101.298 16.048 100.578 15.632C99.8584 15.216 98.9864 15.008 97.9624 15.008C96.5544 15.008 95.3544 15.44 94.3624 16.304C93.3704 17.168 92.7944 18.464 92.6344 20.192ZM121.711 35.576C119.039 35.576 116.919 34.856 115.351 33.416C113.799 31.96 113.023 29.992 113.023 27.512C113.023 25.912 113.423 24.512 114.223 23.312C115.039 22.096 116.167 21.16 117.607 20.504C119.063 19.832 120.759 19.496 122.695 19.496C123.767 19.496 124.799 19.6 125.791 19.808C126.799 20 127.679 20.28 128.431 20.648V19.112C128.431 17.736 128.039 16.704 127.255 16.016C126.487 15.312 125.351 14.96 123.847 14.96C122.647 14.96 121.415 15.176 120.151 15.608C118.887 16.04 117.607 16.68 116.311 17.528L114.511 12.8C115.919 11.872 117.487 11.16 119.215 10.664C120.943 10.152 122.687 9.896 124.447 9.896C127.743 9.896 130.207 10.68 131.839 12.248C133.471 13.8 134.287 16.12 134.287 19.208V35H128.431V33.032C127.599 33.864 126.607 34.496 125.455 34.928C124.319 35.36 123.071 35.576 121.711 35.576ZM123.103 30.512C124.095 30.512 125.047 30.32 125.959 29.936C126.887 29.536 127.711 28.976 128.431 28.256V25.352C127.743 25.016 126.975 24.76 126.127 24.584C125.295 24.392 124.463 24.296 123.631 24.296C122.143 24.296 120.967 24.584 120.103 25.16C119.255 25.72 118.831 26.504 118.831 27.512C118.831 28.456 119.207 29.192 119.959 29.72C120.711 30.248 121.759 30.512 123.103 30.512ZM149.198 35.576C147.278 35.576 145.438 35.168 143.678 34.352C141.934 33.536 140.55 32.44 139.526 31.064L143.462 27.752C144.278 28.616 145.222 29.304 146.294 29.816C147.366 30.312 148.39 30.56 149.366 30.56C150.582 30.56 151.518 30.36 152.174 29.96C152.83 29.544 153.158 28.968 153.158 28.232C153.158 27.752 152.998 27.328 152.678 26.96C152.374 26.576 151.83 26.192 151.046 25.808C150.262 25.408 149.158 24.952 147.734 24.44C144.982 23.432 143.03 22.344 141.878 21.176C140.726 19.992 140.15 18.496 140.15 16.688C140.15 14.672 140.966 13.04 142.598 11.792C144.23 10.528 146.358 9.896 148.982 9.896C150.774 9.896 152.422 10.232 153.926 10.904C155.446 11.576 156.75 12.56 157.838 13.856L153.926 17.096C152.486 15.64 150.806 14.912 148.886 14.912C147.91 14.912 147.126 15.096 146.534 15.464C145.942 15.816 145.646 16.296 145.646 16.904C145.646 17.496 145.99 18.024 146.678 18.488C147.382 18.952 148.686 19.496 150.59 20.12C152.478 20.712 154.006 21.384 155.174 22.136C156.358 22.888 157.222 23.76 157.766 24.752C158.326 25.744 158.606 26.888 158.606 28.184C158.606 30.488 157.766 32.296 156.086 33.608C154.422 34.92 152.126 35.576 149.198 35.576ZM174.489 35.576C172.137 35.576 170.105 35.048 168.393 33.992C166.697 32.936 165.385 31.448 164.457 29.528C163.545 27.592 163.089 25.32 163.089 22.712C163.089 20.072 163.553 17.792 164.481 15.872C165.425 13.952 166.745 12.48 168.441 11.456C170.153 10.416 172.169 9.896 174.489 9.896C176.473 9.896 178.273 10.312 179.889 11.144C181.505 11.976 182.793 13.256 183.753 14.984C184.713 16.696 185.193 18.88 185.193 21.536C185.193 21.952 185.177 22.464 185.145 23.072C185.129 23.664 185.089 24.264 185.025 24.872H169.017C169.081 25.992 169.337 26.976 169.785 27.824C170.249 28.656 170.881 29.304 171.681 29.768C172.481 30.232 173.425 30.464 174.513 30.464C175.681 30.464 176.697 30.272 177.561 29.888C178.425 29.488 179.241 28.856 180.009 27.992L183.465 31.568C182.409 32.768 181.137 33.736 179.649 34.472C178.161 35.208 176.441 35.576 174.489 35.576ZM169.041 20.192H179.385C179.305 19.12 179.065 18.2 178.665 17.432C178.265 16.648 177.705 16.048 176.985 15.632C176.265 15.216 175.393 15.008 174.369 15.008C172.961 15.008 171.761 15.44 170.769 16.304C169.777 17.168 169.201 18.464 169.041 20.192ZM210.782 35V21.896L198.47 1.4H205.478L213.854 15.416L222.254 1.4H229.214L216.95 21.848V35H210.782ZM239.476 35.576C236.02 35.576 233.292 34.432 231.292 32.144C229.292 29.856 228.292 26.728 228.292 22.76C228.292 20.136 228.748 17.864 229.66 15.944C230.572 14.008 231.86 12.52 233.524 11.48C235.204 10.424 237.188 9.896 239.476 9.896C241.748 9.896 243.716 10.416 245.38 11.456C247.044 12.496 248.324 13.976 249.22 15.896C250.116 17.816 250.564 20.096 250.564 22.736C250.564 25.392 250.116 27.68 249.22 29.6C248.34 31.52 247.068 33 245.404 34.04C243.74 35.064 241.764 35.576 239.476 35.576ZM239.476 29.84C241.092 29.84 242.348 29.216 243.244 27.968C244.14 26.72 244.588 24.976 244.588 22.736C244.588 20.496 244.132 18.752 243.22 17.504C242.324 16.24 241.076 15.608 239.476 15.608C237.86 15.608 236.596 16.24 235.684 17.504C234.772 18.768 234.316 20.52 234.316 22.76C234.316 24.968 234.772 26.704 235.684 27.968C236.596 29.216 237.86 29.84 239.476 29.84ZM265.151 35.576C262.415 35.576 260.295 34.728 258.791 33.032C257.287 31.32 256.535 28.904 256.535 25.784V10.472H262.535V23.912C262.535 25.976 262.887 27.48 263.591 28.424C264.295 29.368 265.407 29.84 266.927 29.84C268.559 29.84 269.759 29.368 270.527 28.424C271.311 27.464 271.703 25.992 271.703 24.008V10.472H277.679V35H271.703V32.696C270.951 33.656 270.023 34.376 268.919 34.856C267.831 35.336 266.575 35.576 265.151 35.576ZM285.228 35V10.472H291.228V13.112C291.676 12.168 292.38 11.4 293.34 10.808C294.3 10.2 295.308 9.896 296.364 9.896C298.108 9.896 299.58 10.496 300.78 11.696L299.94 17.192C299.284 16.648 298.644 16.264 298.02 16.04C297.396 15.816 296.708 15.704 295.956 15.704C294.964 15.704 294.116 15.936 293.412 16.4C292.708 16.864 292.164 17.536 291.78 18.416C291.412 19.296 291.228 20.352 291.228 21.584V35H285.228Z" fill="white"/>
<path d="M317.437 35V1.4H323.653V35H317.437ZM331.353 35V10.472H337.353V12.824C338.137 11.848 339.073 11.12 340.161 10.64C341.265 10.144 342.521 9.896 343.929 9.896C346.665 9.896 348.777 10.744 350.265 12.44C351.753 14.12 352.497 16.544 352.497 19.712V35H346.521V21.56C346.521 19.496 346.161 17.992 345.441 17.048C344.737 16.088 343.633 15.608 342.129 15.608C340.497 15.608 339.289 16.088 338.505 17.048C337.737 17.992 337.353 19.464 337.353 21.464V35H331.353ZM366.209 35.576C364.257 35.576 362.793 35.04 361.817 33.968C360.841 32.896 360.353 31.296 360.353 29.168V15.728H356.777V10.472H360.353V3.2L366.305 0.343997V10.472H371.873V15.728H366.305V28.088C366.305 28.856 366.457 29.424 366.761 29.792C367.081 30.16 367.577 30.344 368.249 30.344C369.433 30.344 370.729 29.976 372.137 29.24L371.441 34.472C370.705 34.84 369.905 35.112 369.041 35.288C368.177 35.48 367.233 35.576 366.209 35.576ZM387.77 35.576C385.418 35.576 383.386 35.048 381.674 33.992C379.978 32.936 378.666 31.448 377.738 29.528C376.826 27.592 376.37 25.32 376.37 22.712C376.37 20.072 376.834 17.792 377.762 15.872C378.706 13.952 380.026 12.48 381.722 11.456C383.434 10.416 385.45 9.896 387.77 9.896C389.754 9.896 391.554 10.312 393.17 11.144C394.786 11.976 396.074 13.256 397.034 14.984C397.994 16.696 398.474 18.88 398.474 21.536C398.474 21.952 398.458 22.464 398.426 23.072C398.41 23.664 398.37 24.264 398.306 24.872H382.298C382.362 25.992 382.618 26.976 383.066 27.824C383.53 28.656 384.162 29.304 384.962 29.768C385.762 30.232 386.706 30.464 387.794 30.464C388.962 30.464 389.978 30.272 390.842 29.888C391.706 29.488 392.522 28.856 393.29 27.992L396.746 31.568C395.69 32.768 394.418 33.736 392.93 34.472C391.442 35.208 389.722 35.576 387.77 35.576ZM382.322 20.192H392.666C392.586 19.12 392.346 18.2 391.946 17.432C391.546 16.648 390.986 16.048 390.266 15.632C389.546 15.216 388.674 15.008 387.65 15.008C386.242 15.008 385.042 15.44 384.05 16.304C383.058 17.168 382.482 18.464 382.322 20.192ZM404.525 35V10.472H410.525V13.112C410.973 12.168 411.677 11.4 412.637 10.808C413.597 10.2 414.605 9.896 415.661 9.896C417.405 9.896 418.877 10.496 420.077 11.696L419.237 17.192C418.581 16.648 417.941 16.264 417.317 16.04C416.693 15.816 416.005 15.704 415.253 15.704C414.261 15.704 413.413 15.936 412.709 16.4C412.005 16.864 411.461 17.536 411.077 18.416C410.709 19.296 410.525 20.352 410.525 21.584V35H404.525ZM423.885 35V10.472H429.885V12.824C430.669 11.848 431.605 11.12 432.693 10.64C433.797 10.144 435.053 9.896 436.461 9.896C439.197 9.896 441.309 10.744 442.797 12.44C444.285 14.12 445.029 16.544 445.029 19.712V35H439.053V21.56C439.053 19.496 438.693 17.992 437.973 17.048C437.269 16.088 436.165 15.608 434.661 15.608C433.029 15.608 431.821 16.088 431.037 17.048C430.269 17.992 429.885 19.464 429.885 21.464V35H423.885ZM459.586 35.576C456.914 35.576 454.794 34.856 453.226 33.416C451.674 31.96 450.898 29.992 450.898 27.512C450.898 25.912 451.298 24.512 452.098 23.312C452.914 22.096 454.042 21.16 455.482 20.504C456.938 19.832 458.634 19.496 460.57 19.496C461.642 19.496 462.674 19.6 463.666 19.808C464.674 20 465.554 20.28 466.306 20.648V19.112C466.306 17.736 465.914 16.704 465.13 16.016C464.362 15.312 463.226 14.96 461.722 14.96C460.522 14.96 459.29 15.176 458.026 15.608C456.762 16.04 455.482 16.68 454.186 17.528L452.386 12.8C453.794 11.872 455.362 11.16 457.09 10.664C458.818 10.152 460.562 9.896 462.322 9.896C465.618 9.896 468.082 10.68 469.714 12.248C471.346 13.8 472.162 16.12 472.162 19.208V35H466.306V33.032C465.474 33.864 464.482 34.496 463.33 34.928C462.194 35.36 460.946 35.576 459.586 35.576ZM460.978 30.512C461.97 30.512 462.922 30.32 463.834 29.936C464.762 29.536 465.586 28.976 466.306 28.256V25.352C465.618 25.016 464.85 24.76 464.002 24.584C463.17 24.392 462.338 24.296 461.506 24.296C460.018 24.296 458.842 24.584 457.978 25.16C457.13 25.72 456.706 26.504 456.706 27.512C456.706 28.456 457.082 29.192 457.834 29.72C458.586 30.248 459.634 30.512 460.978 30.512ZM485.505 35.576C483.553 35.576 482.089 35.04 481.113 33.968C480.137 32.896 479.649 31.296 479.649 29.168V15.728H476.073V10.472H479.649V3.2L485.601 0.343997V10.472H491.169V15.728H485.601V28.088C485.601 28.856 485.753 29.424 486.057 29.792C486.377 30.16 486.873 30.344 487.545 30.344C488.729 30.344 490.025 29.976 491.433 29.24L490.737 34.472C490.001 34.84 489.201 35.112 488.337 35.288C487.473 35.48 486.529 35.576 485.505 35.576ZM496.308 35V10.472H502.308V35H496.308ZM499.308 7.4C498.348 7.4 497.516 7.056 496.812 6.368C496.124 5.664 495.78 4.832 495.78 3.872C495.78 2.912 496.124 2.096 496.812 1.424C497.5 0.735999 498.332 0.391999 499.308 0.391999C500.316 0.391999 501.156 0.727999 501.828 1.4C502.5 2.072 502.836 2.896 502.836 3.872C502.836 4.848 502.492 5.68 501.804 6.368C501.132 7.056 500.3 7.4 499.308 7.4ZM519.741 35.576C516.285 35.576 513.557 34.432 511.557 32.144C509.557 29.856 508.557 26.728 508.557 22.76C508.557 20.136 509.013 17.864 509.925 15.944C510.837 14.008 512.125 12.52 513.789 11.48C515.469 10.424 517.453 9.896 519.741 9.896C522.013 9.896 523.981 10.416 525.645 11.456C527.309 12.496 528.589 13.976 529.485 15.896C530.381 17.816 530.829 20.096 530.829 22.736C530.829 25.392 530.381 27.68 529.485 29.6C528.605 31.52 527.333 33 525.669 34.04C524.005 35.064 522.029 35.576 519.741 35.576ZM519.741 29.84C521.357 29.84 522.613 29.216 523.509 27.968C524.405 26.72 524.853 24.976 524.853 22.736C524.853 20.496 524.397 18.752 523.485 17.504C522.589 16.24 521.341 15.608 519.741 15.608C518.125 15.608 516.861 16.24 515.949 17.504C515.037 18.768 514.581 20.52 514.581 22.76C514.581 24.968 515.037 26.704 515.949 27.968C516.861 29.216 518.125 29.84 519.741 29.84ZM536.572 35V10.472H542.572V12.824C543.356 11.848 544.292 11.12 545.38 10.64C546.484 10.144 547.74 9.896 549.148 9.896C551.884 9.896 553.996 10.744 555.484 12.44C556.972 14.12 557.716 16.544 557.716 19.712V35H551.74V21.56C551.74 19.496 551.38 17.992 550.66 17.048C549.956 16.088 548.852 15.608 547.348 15.608C545.716 15.608 544.508 16.088 543.724 17.048C542.956 17.992 542.572 19.464 542.572 21.464V35H536.572ZM572.273 35.576C569.601 35.576 567.481 34.856 565.913 33.416C564.361 31.96 563.585 29.992 563.585 27.512C563.585 25.912 563.985 24.512 564.785 23.312C565.601 22.096 566.729 21.16 568.169 20.504C569.625 19.832 571.321 19.496 573.257 19.496C574.329 19.496 575.361 19.6 576.353 19.808C577.361 20 578.241 20.28 578.993 20.648V19.112C578.993 17.736 578.601 16.704 577.817 16.016C577.049 15.312 575.913 14.96 574.409 14.96C573.209 14.96 571.977 15.176 570.713 15.608C569.449 16.04 568.169 16.68 566.873 17.528L565.073 12.8C566.481 11.872 568.049 11.16 569.777 10.664C571.505 10.152 573.249 9.896 575.009 9.896C578.305 9.896 580.769 10.68 582.401 12.248C584.033 13.8 584.849 16.12 584.849 19.208V35H578.993V33.032C578.161 33.864 577.169 34.496 576.017 34.928C574.881 35.36 573.633 35.576 572.273 35.576ZM573.665 30.512C574.657 30.512 575.609 30.32 576.521 29.936C577.449 29.536 578.273 28.976 578.993 28.256V25.352C578.305 25.016 577.537 24.76 576.689 24.584C575.857 24.392 575.025 24.296 574.193 24.296C572.705 24.296 571.529 24.584 570.665 25.16C569.817 25.72 569.393 26.504 569.393 27.512C569.393 28.456 569.769 29.192 570.521 29.72C571.273 30.248 572.321 30.512 573.665 30.512ZM591.984 35V3.056L597.984 0.343997V35H591.984ZM617.953 35V1.4H640.297V7.304H624.169V14.696H634.489V20.6H624.169V35H617.953ZM648.398 35.576C645.726 35.576 643.606 34.856 642.038 33.416C640.486 31.96 639.71 29.992 639.71 27.512C639.71 25.912 640.11 24.512 640.91 23.312C641.726 22.096 642.854 21.16 644.294 20.504C645.75 19.832 647.446 19.496 649.382 19.496C650.454 19.496 651.486 19.6 652.478 19.808C653.486 20 654.366 20.28 655.118 20.648V19.112C655.118 17.736 654.726 16.704 653.942 16.016C653.174 15.312 652.038 14.96 650.534 14.96C649.334 14.96 648.102 15.176 646.838 15.608C645.574 16.04 644.294 16.68 642.998 17.528L641.198 12.8C642.606 11.872 644.174 11.16 645.902 10.664C647.63 10.152 649.374 9.896 651.134 9.896C654.43 9.896 656.894 10.68 658.526 12.248C660.158 13.8 660.974 16.12 660.974 19.208V35H655.118V33.032C654.286 33.864 653.294 34.496 652.142 34.928C651.006 35.36 649.758 35.576 648.398 35.576ZM649.79 30.512C650.782 30.512 651.734 30.32 652.646 29.936C653.574 29.536 654.398 28.976 655.118 28.256V25.352C654.43 25.016 653.662 24.76 652.814 24.584C651.982 24.392 651.15 24.296 650.318 24.296C648.83 24.296 647.654 24.584 646.79 25.16C645.942 25.72 645.518 26.504 645.518 27.512C645.518 28.456 645.894 29.192 646.646 29.72C647.398 30.248 648.446 30.512 649.79 30.512ZM668.15 35V10.472H674.15V12.824C674.934 11.848 675.87 11.12 676.958 10.64C678.062 10.144 679.318 9.896 680.726 9.896C683.462 9.896 685.574 10.744 687.062 12.44C688.55 14.12 689.294 16.544 689.294 19.712V35H683.318V21.56C683.318 19.496 682.958 17.992 682.238 17.048C681.534 16.088 680.43 15.608 678.926 15.608C677.294 15.608 676.086 16.088 675.302 17.048C674.534 17.992 674.15 19.464 674.15 21.464V35H668.15ZM707.693 35.576C706.573 35.576 705.605 35.376 704.789 34.976C703.989 34.576 703.245 33.928 702.557 33.032V35H696.557V3.056L702.557 0.343997V12.392C703.181 11.592 703.949 10.976 704.861 10.544C705.789 10.112 706.797 9.896 707.885 9.896C709.917 9.896 711.693 10.432 713.213 11.504C714.733 12.576 715.917 14.08 716.765 16.016C717.629 17.936 718.061 20.168 718.061 22.712C718.061 26.76 717.141 29.92 715.301 32.192C713.477 34.448 710.941 35.576 707.693 35.576ZM706.973 29.84C708.605 29.84 709.853 29.224 710.717 27.992C711.597 26.76 712.037 25 712.037 22.712C712.037 20.424 711.597 18.672 710.717 17.456C709.853 16.224 708.605 15.608 706.973 15.608C706.077 15.608 705.229 15.808 704.429 16.208C703.629 16.592 703.005 17.112 702.557 17.768V27.68C703.053 28.384 703.661 28.92 704.381 29.288C705.101 29.656 705.965 29.84 706.973 29.84ZM731.695 35.576C729.023 35.576 726.903 34.856 725.335 33.416C723.783 31.96 723.007 29.992 723.007 27.512C723.007 25.912 723.407 24.512 724.207 23.312C725.023 22.096 726.151 21.16 727.591 20.504C729.047 19.832 730.743 19.496 732.679 19.496C733.751 19.496 734.783 19.6 735.775 19.808C736.783 20 737.663 20.28 738.415 20.648V19.112C738.415 17.736 738.023 16.704 737.239 16.016C736.471 15.312 735.335 14.96 733.831 14.96C732.631 14.96 731.399 15.176 730.135 15.608C728.871 16.04 727.591 16.68 726.295 17.528L724.495 12.8C725.903 11.872 727.471 11.16 729.199 10.664C730.927 10.152 732.671 9.896 734.431 9.896C737.727 9.896 740.191 10.68 741.823 12.248C743.455 13.8 744.271 16.12 744.271 19.208V35H738.415V33.032C737.583 33.864 736.591 34.496 735.439 34.928C734.303 35.36 733.055 35.576 731.695 35.576ZM733.087 30.512C734.079 30.512 735.031 30.32 735.943 29.936C736.871 29.536 737.695 28.976 738.415 28.256V25.352C737.727 25.016 736.959 24.76 736.111 24.584C735.279 24.392 734.447 24.296 733.615 24.296C732.127 24.296 730.951 24.584 730.087 25.16C729.239 25.72 728.815 26.504 728.815 27.512C728.815 28.456 729.191 29.192 729.943 29.72C730.695 30.248 731.743 30.512 733.087 30.512ZM759.182 35.576C757.262 35.576 755.422 35.168 753.662 34.352C751.918 33.536 750.534 32.44 749.51 31.064L753.446 27.752C754.262 28.616 755.206 29.304 756.278 29.816C757.35 30.312 758.374 30.56 759.35 30.56C760.566 30.56 761.502 30.36 762.158 29.96C762.814 29.544 763.142 28.968 763.142 28.232C763.142 27.752 762.982 27.328 762.662 26.96C762.358 26.576 761.814 26.192 761.03 25.808C760.246 25.408 759.142 24.952 757.718 24.44C754.966 23.432 753.014 22.344 751.862 21.176C750.71 19.992 750.134 18.496 750.134 16.688C750.134 14.672 750.95 13.04 752.582 11.792C754.214 10.528 756.342 9.896 758.966 9.896C760.758 9.896 762.406 10.232 763.91 10.904C765.43 11.576 766.734 12.56 767.822 13.856L763.91 17.096C762.47 15.64 760.79 14.912 758.87 14.912C757.894 14.912 757.11 15.096 756.518 15.464C755.926 15.816 755.63 16.296 755.63 16.904C755.63 17.496 755.974 18.024 756.662 18.488C757.366 18.952 758.67 19.496 760.574 20.12C762.462 20.712 763.99 21.384 765.158 22.136C766.342 22.888 767.206 23.76 767.75 24.752C768.31 25.744 768.59 26.888 768.59 28.184C768.59 30.488 767.75 32.296 766.07 33.608C764.406 34.92 762.11 35.576 759.182 35.576ZM784.473 35.576C782.121 35.576 780.089 35.048 778.377 33.992C776.681 32.936 775.369 31.448 774.441 29.528C773.529 27.592 773.073 25.32 773.073 22.712C773.073 20.072 773.537 17.792 774.465 15.872C775.409 13.952 776.729 12.48 778.425 11.456C780.137 10.416 782.153 9.896 784.473 9.896C786.457 9.896 788.257 10.312 789.873 11.144C791.489 11.976 792.777 13.256 793.737 14.984C794.697 16.696 795.177 18.88 795.177 21.536C795.177 21.952 795.161 22.464 795.129 23.072C795.113 23.664 795.073 24.264 795.009 24.872H779.001C779.065 25.992 779.321 26.976 779.769 27.824C780.233 28.656 780.865 29.304 781.665 29.768C782.465 30.232 783.409 30.464 784.497 30.464C785.665 30.464 786.681 30.272 787.545 29.888C788.409 29.488 789.225 28.856 789.993 27.992L793.449 31.568C792.393 32.768 791.121 33.736 789.633 34.472C788.145 35.208 786.425 35.576 784.473 35.576ZM779.025 20.192H789.369C789.289 19.12 789.049 18.2 788.649 17.432C788.249 16.648 787.689 16.048 786.969 15.632C786.249 15.216 785.377 15.008 784.353 15.008C782.945 15.008 781.745 15.44 780.753 16.304C779.761 17.168 779.185 18.464 779.025 20.192Z" fill="url(#paint0_linear_479_450)"/>
<defs>
<linearGradient id="paint0_linear_479_450" x1="316.5" y1="14" x2="690.512" y2="255.786" gradientUnits="userSpaceOnUse">
<stop stop-color="#FE3688"/>
<stop offset="0.46875" stop-color="#73BCFF"/>
<stop offset="0.816354" stop-color="#FE3688"/>
<stop offset="1" stop-color="#EF1D1D"/>
</linearGradient>
</defs>
</svg>
