<svg width="631" height="45" viewBox="0 0 631 45" fill="none" xmlns="http://www.w3.org/2000/svg">
<path d="M7.832 35L0.776 1.4H7.208L10.856 20.312C10.952 20.824 11.032 21.28 11.096 21.68C11.16 22.08 11.216 22.52 11.264 23C11.328 22.552 11.408 22.112 11.504 21.68C11.6 21.232 11.712 20.776 11.84 20.312L16.616 1.4H21.944L26.744 20.288C26.872 20.736 26.976 21.176 27.056 21.608C27.136 22.04 27.208 22.48 27.272 22.928C27.336 22.496 27.4 22.08 27.464 21.68C27.544 21.264 27.624 20.84 27.704 20.408L31.52 1.4H37.928L30.656 35H25.016L19.688 14.84C19.576 14.456 19.48 14.088 19.4 13.736C19.336 13.384 19.272 12.976 19.208 12.512C19.128 12.992 19.048 13.4 18.968 13.736C18.904 14.072 18.824 14.432 18.728 14.816L13.52 35H7.832ZM43.4315 35V3.104L49.4315 0.343997V12.848C50.2155 11.856 51.1515 11.12 52.2395 10.64C53.3435 10.144 54.5995 9.896 56.0075 9.896C57.8955 9.896 59.4715 10.296 60.7355 11.096C62.0155 11.88 62.9755 13.008 63.6155 14.48C64.2555 15.936 64.5755 17.68 64.5755 19.712V35H58.5995V21.56C58.5995 19.544 58.2555 18.048 57.5675 17.072C56.8795 16.096 55.7595 15.608 54.2075 15.608C52.5755 15.608 51.3675 16.088 50.5835 17.048C49.8155 17.992 49.4315 19.464 49.4315 21.464V35H43.4315ZM74.5348 44.312L78.2548 34.568L69.0628 10.472H75.2308L80.5828 24.824C80.7268 25.16 80.8628 25.528 80.9908 25.928C81.1188 26.328 81.2388 26.728 81.3508 27.128C81.4468 26.728 81.5588 26.336 81.6868 25.952C81.8308 25.552 81.9748 25.176 82.1188 24.824L87.4708 10.472H93.6388L80.7268 44.312H74.5348ZM115.926 35L108.87 1.4H115.302L118.95 20.312C119.046 20.824 119.126 21.28 119.19 21.68C119.254 22.08 119.31 22.52 119.358 23C119.422 22.552 119.502 22.112 119.598 21.68C119.694 21.232 119.806 20.776 119.934 20.312L124.71 1.4H130.038L134.838 20.288C134.966 20.736 135.07 21.176 135.15 21.608C135.23 22.04 135.302 22.48 135.366 22.928C135.43 22.496 135.494 22.08 135.558 21.68C135.638 21.264 135.718 20.84 135.798 20.408L139.614 1.4H146.022L138.75 35H133.11L127.782 14.84C127.67 14.456 127.574 14.088 127.494 13.736C127.43 13.384 127.366 12.976 127.302 12.512C127.222 12.992 127.142 13.4 127.062 13.736C126.998 14.072 126.918 14.432 126.822 14.816L121.614 35H115.926ZM159.52 35.576C157.168 35.576 155.136 35.048 153.424 33.992C151.728 32.936 150.416 31.448 149.488 29.528C148.576 27.592 148.12 25.32 148.12 22.712C148.12 20.072 148.584 17.792 149.512 15.872C150.456 13.952 151.776 12.48 153.472 11.456C155.184 10.416 157.2 9.896 159.52 9.896C161.504 9.896 163.304 10.312 164.92 11.144C166.536 11.976 167.824 13.256 168.784 14.984C169.744 16.696 170.224 18.88 170.224 21.536C170.224 21.952 170.208 22.464 170.176 23.072C170.16 23.664 170.12 24.264 170.056 24.872H154.048C154.112 25.992 154.368 26.976 154.816 27.824C155.28 28.656 155.912 29.304 156.712 29.768C157.512 30.232 158.456 30.464 159.544 30.464C160.712 30.464 161.728 30.272 162.592 29.888C163.456 29.488 164.272 28.856 165.04 27.992L168.496 31.568C167.44 32.768 166.168 33.736 164.68 34.472C163.192 35.208 161.472 35.576 159.52 35.576ZM154.072 20.192H164.416C164.336 19.12 164.096 18.2 163.696 17.432C163.296 16.648 162.736 16.048 162.016 15.632C161.296 15.216 160.424 15.008 159.4 15.008C157.992 15.008 156.792 15.44 155.8 16.304C154.808 17.168 154.232 18.464 154.072 20.192Z" fill="white"/>
<path d="M188.375 35V1.4H194.591V28.976H210.839V35H188.375ZM225.426 35.576C223.074 35.576 221.042 35.048 219.33 33.992C217.634 32.936 216.322 31.448 215.394 29.528C214.482 27.592 214.026 25.32 214.026 22.712C214.026 20.072 214.49 17.792 215.418 15.872C216.362 13.952 217.682 12.48 219.378 11.456C221.09 10.416 223.106 9.896 225.426 9.896C227.41 9.896 229.21 10.312 230.826 11.144C232.442 11.976 233.73 13.256 234.69 14.984C235.65 16.696 236.13 18.88 236.13 21.536C236.13 21.952 236.114 22.464 236.082 23.072C236.066 23.664 236.026 24.264 235.962 24.872H219.954C220.018 25.992 220.274 26.976 220.722 27.824C221.186 28.656 221.818 29.304 222.618 29.768C223.418 30.232 224.362 30.464 225.45 30.464C226.618 30.464 227.634 30.272 228.498 29.888C229.362 29.488 230.178 28.856 230.946 27.992L234.402 31.568C233.346 32.768 232.074 33.736 230.586 34.472C229.098 35.208 227.378 35.576 225.426 35.576ZM219.978 20.192H230.322C230.242 19.12 230.002 18.2 229.602 17.432C229.202 16.648 228.642 16.048 227.922 15.632C227.202 15.216 226.33 15.008 225.306 15.008C223.898 15.008 222.698 15.44 221.706 16.304C220.714 17.168 220.138 18.464 219.978 20.192ZM249.055 35.576C246.383 35.576 244.263 34.856 242.695 33.416C241.143 31.96 240.367 29.992 240.367 27.512C240.367 25.912 240.767 24.512 241.567 23.312C242.383 22.096 243.511 21.16 244.951 20.504C246.407 19.832 248.103 19.496 250.039 19.496C251.111 19.496 252.143 19.6 253.135 19.808C254.143 20 255.023 20.28 255.775 20.648V19.112C255.775 17.736 255.383 16.704 254.599 16.016C253.831 15.312 252.695 14.96 251.191 14.96C249.991 14.96 248.759 15.176 247.495 15.608C246.231 16.04 244.951 16.68 243.655 17.528L241.855 12.8C243.263 11.872 244.831 11.16 246.559 10.664C248.287 10.152 250.031 9.896 251.791 9.896C255.087 9.896 257.551 10.68 259.183 12.248C260.815 13.8 261.631 16.12 261.631 19.208V35H255.775V33.032C254.943 33.864 253.951 34.496 252.799 34.928C251.663 35.36 250.415 35.576 249.055 35.576ZM250.447 30.512C251.439 30.512 252.391 30.32 253.303 29.936C254.231 29.536 255.055 28.976 255.775 28.256V25.352C255.087 25.016 254.319 24.76 253.471 24.584C252.639 24.392 251.807 24.296 250.975 24.296C249.487 24.296 248.311 24.584 247.447 25.16C246.599 25.72 246.175 26.504 246.175 27.512C246.175 28.456 246.551 29.192 247.303 29.72C248.055 30.248 249.103 30.512 250.447 30.512ZM277.568 35.576C274.416 35.576 271.944 34.44 270.152 32.168C268.36 29.896 267.464 26.744 267.464 22.712C267.464 20.152 267.888 17.912 268.736 15.992C269.584 14.072 270.768 12.576 272.288 11.504C273.824 10.432 275.608 9.896 277.64 9.896C279.816 9.896 281.6 10.696 282.992 12.296V3.056L288.968 0.343997V35H282.992V32.984C281.808 34.712 280 35.576 277.568 35.576ZM278.552 29.84C279.576 29.84 280.448 29.664 281.168 29.312C281.888 28.944 282.496 28.4 282.992 27.68V17.768C282.496 17.096 281.848 16.568 281.048 16.184C280.264 15.8 279.432 15.608 278.552 15.608C276.936 15.608 275.688 16.224 274.808 17.456C273.928 18.672 273.488 20.424 273.488 22.712C273.488 24.216 273.688 25.504 274.088 26.576C274.488 27.632 275.064 28.44 275.816 29C276.568 29.56 277.48 29.84 278.552 29.84ZM308.511 35V10.472H314.511V35H308.511ZM311.511 7.4C310.551 7.4 309.719 7.056 309.015 6.368C308.327 5.664 307.983 4.832 307.983 3.872C307.983 2.912 308.327 2.096 309.015 1.424C309.703 0.735999 310.535 0.391999 311.511 0.391999C312.519 0.391999 313.359 0.727999 314.031 1.4C314.703 2.072 315.039 2.896 315.039 3.872C315.039 4.848 314.695 5.68 314.007 6.368C313.335 7.056 312.503 7.4 311.511 7.4ZM322.057 35V10.472H328.057V12.824C328.841 11.848 329.777 11.12 330.865 10.64C331.969 10.144 333.225 9.896 334.633 9.896C337.369 9.896 339.481 10.744 340.969 12.44C342.457 14.12 343.201 16.544 343.201 19.712V35H337.225V21.56C337.225 19.496 336.865 17.992 336.145 17.048C335.441 16.088 334.337 15.608 332.833 15.608C331.201 15.608 329.993 16.088 329.209 17.048C328.441 17.992 328.057 19.464 328.057 21.464V35H322.057ZM370.141 35V7.376H360.613V1.4H385.932V7.376H376.357V35H370.141ZM388.291 35V10.472H394.291V13.112C394.739 12.168 395.443 11.4 396.403 10.808C397.363 10.2 398.371 9.896 399.427 9.896C401.171 9.896 402.643 10.496 403.843 11.696L403.003 17.192C402.347 16.648 401.707 16.264 401.083 16.04C400.459 15.816 399.771 15.704 399.019 15.704C398.027 15.704 397.179 15.936 396.475 16.4C395.771 16.864 395.227 17.536 394.843 18.416C394.475 19.296 394.291 20.352 394.291 21.584V35H388.291ZM414.992 35.576C412.32 35.576 410.2 34.856 408.632 33.416C407.08 31.96 406.304 29.992 406.304 27.512C406.304 25.912 406.704 24.512 407.504 23.312C408.32 22.096 409.448 21.16 410.888 20.504C412.344 19.832 414.04 19.496 415.976 19.496C417.048 19.496 418.08 19.6 419.072 19.808C420.08 20 420.96 20.28 421.712 20.648V19.112C421.712 17.736 421.32 16.704 420.536 16.016C419.768 15.312 418.632 14.96 417.128 14.96C415.928 14.96 414.696 15.176 413.432 15.608C412.168 16.04 410.888 16.68 409.592 17.528L407.792 12.8C409.2 11.872 410.768 11.16 412.496 10.664C414.224 10.152 415.968 9.896 417.728 9.896C421.024 9.896 423.488 10.68 425.12 12.248C426.752 13.8 427.568 16.12 427.568 19.208V35H421.712V33.032C420.88 33.864 419.888 34.496 418.736 34.928C417.6 35.36 416.352 35.576 414.992 35.576ZM416.384 30.512C417.376 30.512 418.328 30.32 419.24 29.936C420.168 29.536 420.992 28.976 421.712 28.256V25.352C421.024 25.016 420.256 24.76 419.408 24.584C418.576 24.392 417.744 24.296 416.912 24.296C415.424 24.296 414.248 24.584 413.384 25.16C412.536 25.72 412.112 26.504 412.112 27.512C412.112 28.456 412.488 29.192 413.24 29.72C413.992 30.248 415.04 30.512 416.384 30.512ZM434.744 35V10.472H440.744V12.824C441.528 11.848 442.464 11.12 443.552 10.64C444.656 10.144 445.912 9.896 447.32 9.896C450.056 9.896 452.168 10.744 453.656 12.44C455.144 14.12 455.888 16.544 455.888 19.712V35H449.912V21.56C449.912 19.496 449.552 17.992 448.832 17.048C448.128 16.088 447.024 15.608 445.52 15.608C443.888 15.608 442.68 16.088 441.896 17.048C441.128 17.992 440.744 19.464 440.744 21.464V35H434.744ZM471.166 35.576C469.246 35.576 467.406 35.168 465.646 34.352C463.902 33.536 462.518 32.44 461.494 31.064L465.43 27.752C466.246 28.616 467.19 29.304 468.262 29.816C469.334 30.312 470.358 30.56 471.334 30.56C472.55 30.56 473.486 30.36 474.142 29.96C474.798 29.544 475.126 28.968 475.126 28.232C475.126 27.752 474.966 27.328 474.646 26.96C474.342 26.576 473.798 26.192 473.014 25.808C472.23 25.408 471.126 24.952 469.702 24.44C466.95 23.432 464.998 22.344 463.846 21.176C462.694 19.992 462.118 18.496 462.118 16.688C462.118 14.672 462.934 13.04 464.566 11.792C466.198 10.528 468.326 9.896 470.95 9.896C472.742 9.896 474.39 10.232 475.894 10.904C477.414 11.576 478.718 12.56 479.806 13.856L475.894 17.096C474.454 15.64 472.774 14.912 470.854 14.912C469.878 14.912 469.094 15.096 468.502 15.464C467.91 15.816 467.614 16.296 467.614 16.904C467.614 17.496 467.958 18.024 468.646 18.488C469.35 18.952 470.654 19.496 472.558 20.12C474.446 20.712 475.974 21.384 477.142 22.136C478.326 22.888 479.19 23.76 479.734 24.752C480.294 25.744 480.574 26.888 480.574 28.184C480.574 30.488 479.734 32.296 478.054 33.608C476.39 34.92 474.094 35.576 471.166 35.576ZM487.015 35V3.056L493.015 0.343997V35H487.015ZM507.992 35.576C505.32 35.576 503.2 34.856 501.632 33.416C500.08 31.96 499.304 29.992 499.304 27.512C499.304 25.912 499.704 24.512 500.504 23.312C501.32 22.096 502.448 21.16 503.888 20.504C505.344 19.832 507.04 19.496 508.976 19.496C510.048 19.496 511.08 19.6 512.072 19.808C513.08 20 513.96 20.28 514.712 20.648V19.112C514.712 17.736 514.32 16.704 513.536 16.016C512.768 15.312 511.632 14.96 510.128 14.96C508.928 14.96 507.696 15.176 506.432 15.608C505.168 16.04 503.888 16.68 502.592 17.528L500.792 12.8C502.2 11.872 503.768 11.16 505.496 10.664C507.224 10.152 508.968 9.896 510.728 9.896C514.024 9.896 516.488 10.68 518.12 12.248C519.752 13.8 520.568 16.12 520.568 19.208V35H514.712V33.032C513.88 33.864 512.888 34.496 511.736 34.928C510.6 35.36 509.352 35.576 507.992 35.576ZM509.384 30.512C510.376 30.512 511.328 30.32 512.24 29.936C513.168 29.536 513.992 28.976 514.712 28.256V25.352C514.024 25.016 513.256 24.76 512.408 24.584C511.576 24.392 510.744 24.296 509.912 24.296C508.424 24.296 507.248 24.584 506.384 25.16C505.536 25.72 505.112 26.504 505.112 27.512C505.112 28.456 505.488 29.192 506.24 29.72C506.992 30.248 508.04 30.512 509.384 30.512ZM533.912 35.576C531.96 35.576 530.496 35.04 529.52 33.968C528.544 32.896 528.056 31.296 528.056 29.168V15.728H524.48V10.472H528.056V3.2L534.008 0.343997V10.472H539.576V15.728H534.008V28.088C534.008 28.856 534.16 29.424 534.464 29.792C534.784 30.16 535.28 30.344 535.952 30.344C537.136 30.344 538.432 29.976 539.84 29.24L539.144 34.472C538.408 34.84 537.608 35.112 536.744 35.288C535.88 35.48 534.936 35.576 533.912 35.576ZM544.714 35V10.472H550.714V35H544.714ZM547.714 7.4C546.754 7.4 545.922 7.056 545.218 6.368C544.53 5.664 544.186 4.832 544.186 3.872C544.186 2.912 544.53 2.096 545.218 1.424C545.906 0.735999 546.738 0.391999 547.714 0.391999C548.722 0.391999 549.562 0.727999 550.234 1.4C550.906 2.072 551.242 2.896 551.242 3.872C551.242 4.848 550.898 5.68 550.21 6.368C549.538 7.056 548.706 7.4 547.714 7.4ZM568.148 35.576C564.692 35.576 561.964 34.432 559.964 32.144C557.964 29.856 556.964 26.728 556.964 22.76C556.964 20.136 557.42 17.864 558.332 15.944C559.244 14.008 560.532 12.52 562.196 11.48C563.876 10.424 565.86 9.896 568.148 9.896C570.42 9.896 572.388 10.416 574.052 11.456C575.716 12.496 576.996 13.976 577.892 15.896C578.788 17.816 579.236 20.096 579.236 22.736C579.236 25.392 578.788 27.68 577.892 29.6C577.012 31.52 575.74 33 574.076 34.04C572.412 35.064 570.436 35.576 568.148 35.576ZM568.148 29.84C569.764 29.84 571.02 29.216 571.916 27.968C572.812 26.72 573.26 24.976 573.26 22.736C573.26 20.496 572.804 18.752 571.892 17.504C570.996 16.24 569.748 15.608 568.148 15.608C566.532 15.608 565.268 16.24 564.356 17.504C563.444 18.768 562.988 20.52 562.988 22.76C562.988 24.968 563.444 26.704 564.356 27.968C565.268 29.216 566.532 29.84 568.148 29.84ZM584.978 35V10.472H590.978V12.824C591.762 11.848 592.698 11.12 593.786 10.64C594.89 10.144 596.146 9.896 597.554 9.896C600.29 9.896 602.402 10.744 603.89 12.44C605.378 14.12 606.122 16.544 606.122 19.712V35H600.146V21.56C600.146 19.496 599.786 17.992 599.066 17.048C598.362 16.088 597.258 15.608 595.754 15.608C594.122 15.608 592.914 16.088 592.13 17.048C591.362 17.992 590.978 19.464 590.978 21.464V35H584.978ZM621.401 35.576C619.481 35.576 617.641 35.168 615.881 34.352C614.137 33.536 612.753 32.44 611.729 31.064L615.665 27.752C616.481 28.616 617.425 29.304 618.497 29.816C619.569 30.312 620.593 30.56 621.569 30.56C622.785 30.56 623.721 30.36 624.377 29.96C625.033 29.544 625.361 28.968 625.361 28.232C625.361 27.752 625.201 27.328 624.881 26.96C624.577 26.576 624.033 26.192 623.249 25.808C622.465 25.408 621.361 24.952 619.937 24.44C617.185 23.432 615.233 22.344 614.081 21.176C612.929 19.992 612.353 18.496 612.353 16.688C612.353 14.672 613.169 13.04 614.801 11.792C616.433 10.528 618.561 9.896 621.185 9.896C622.977 9.896 624.625 10.232 626.129 10.904C627.649 11.576 628.953 12.56 630.041 13.856L626.129 17.096C624.689 15.64 623.009 14.912 621.089 14.912C620.113 14.912 619.329 15.096 618.737 15.464C618.145 15.816 617.849 16.296 617.849 16.904C617.849 17.496 618.193 18.024 618.881 18.488C619.585 18.952 620.889 19.496 622.793 20.12C624.681 20.712 626.209 21.384 627.377 22.136C628.561 22.888 629.425 23.76 629.969 24.752C630.529 25.744 630.809 26.888 630.809 28.184C630.809 30.488 629.969 32.296 628.289 33.608C626.625 34.92 624.329 35.576 621.401 35.576Z" fill="url(#paint0_linear_479_501)"/>
<defs>
<linearGradient id="paint0_linear_479_501" x1="-13.4732" y1="12.7099" x2="677.088" y2="22.9541" gradientUnits="userSpaceOnUse">
<stop stop-color="#FE3688"/>
<stop offset="0.260417" stop-color="#73BCFF"/>
<stop offset="0.510417" stop-color="#FE3688"/>
<stop offset="0.739583" stop-color="#EF1D1D"/>
<stop offset="0.989583" stop-color="#FFDFDB"/>
</linearGradient>
</defs>
</svg>
