<svg width="1440" height="4890" viewBox="0 0 1440 4890" fill="none" xmlns="http://www.w3.org/2000/svg">
<g clip-path="url(#clip0_217_139)">
<rect width="1440" height="4890" fill="#090C32"/>
<g filter="url(#filter0_f_217_139)">
<path fill-rule="evenodd" clip-rule="evenodd" d="M128.425 841.069C234.866 844.002 311.051 952.606 377.611 1048.5C435.332 1131.66 471.191 1229.5 471.981 1336.04C472.778 1443.61 448.707 1553.52 381.909 1628.55C315.836 1702.76 220.624 1723.29 128.425 1721.94C37.6092 1720.61 -59.1166 1700.31 -118.713 1621.22C-175.779 1545.5 -159.948 1436.36 -162.383 1336.04C-164.934 1230.91 -184.101 1121.49 -132.954 1034.43C-72.5809 931.671 20.8667 838.105 128.425 841.069Z" fill="#73BCFF" fill-opacity="0.25"/>
</g>
<g filter="url(#filter1_f_217_139)">
<path fill-rule="evenodd" clip-rule="evenodd" d="M1379.21 2171.18C1487.14 2166.01 1554.95 2275.17 1634.38 2347.05C1719.51 2424.09 1836.47 2484.59 1850.22 2597.42C1864.86 2717.61 1787 2826.51 1703.67 2915.77C1615.69 3010 1509.42 3104.88 1379.21 3101.93C1250.62 3099.03 1150.87 2999.05 1069.36 2901.44C997.034 2814.84 941.518 2708.22 957.881 2597.42C972.756 2496.69 1075.56 2443.42 1147.78 2370.35C1222.05 2295.22 1272.66 2176.28 1379.21 2171.18Z" fill="url(#paint0_linear_217_139)" fill-opacity="0.25"/>
</g>
<g filter="url(#filter2_f_217_139)">
<path fill-rule="evenodd" clip-rule="evenodd" d="M1147.97 -122.456C1239.69 -116.862 1319.95 -54.4735 1371.91 23.3592C1416.1 89.5666 1403.24 173.21 1398.81 253.351C1394.76 326.641 1393.05 401.767 1347.83 458.623C1298.11 521.147 1225.63 556.337 1147.97 568.789C1053.52 583.932 934.382 610.796 874.142 534.576C814.104 458.611 894.752 351.109 898.663 253.351C902.25 163.661 846.54 68.5056 895.753 -5.67867C949.731 -87.0478 1052.27 -128.292 1147.97 -122.456Z" fill="#FE3688" fill-opacity="0.3"/>
</g>
<g filter="url(#filter3_f_217_139)">
<path fill-rule="evenodd" clip-rule="evenodd" d="M205.755 3795.64C286.6 3802.26 353.957 3850 411.636 3907.04C469.739 3964.49 536.216 4031.77 526.612 4112.92C517.371 4191 425.034 4221.04 368.059 4275.22C313.771 4326.85 278.938 4402.02 205.755 4418.05C118.221 4437.23 11.9861 4433.2 -47.6053 4366.28C-106.143 4300.54 -67.8518 4200.92 -65.9507 4112.92C-64.1217 4028.26 -91.9714 3934.59 -36.8899 3870.27C20.3296 3803.46 118.079 3788.45 205.755 3795.64Z" fill="#FE3688" fill-opacity="0.3"/>
</g>
</g>
<defs>
<filter id="filter0_f_217_139" x="-368" y="641" width="1040" height="1281" filterUnits="userSpaceOnUse" color-interpolation-filters="sRGB">
<feFlood flood-opacity="0" result="BackgroundImageFix"/>
<feBlend mode="normal" in="SourceGraphic" in2="BackgroundImageFix" result="shape"/>
<feGaussianBlur stdDeviation="100" result="effect1_foregroundBlur_217_139"/>
</filter>
<filter id="filter1_f_217_139" x="555" y="1771" width="1697" height="1731" filterUnits="userSpaceOnUse" color-interpolation-filters="sRGB">
<feFlood flood-opacity="0" result="BackgroundImageFix"/>
<feBlend mode="normal" in="SourceGraphic" in2="BackgroundImageFix" result="shape"/>
<feGaussianBlur stdDeviation="200" result="effect1_foregroundBlur_217_139"/>
</filter>
<filter id="filter2_f_217_139" x="452" y="-523" width="1352" height="1509" filterUnits="userSpaceOnUse" color-interpolation-filters="sRGB">
<feFlood flood-opacity="0" result="BackgroundImageFix"/>
<feBlend mode="normal" in="SourceGraphic" in2="BackgroundImageFix" result="shape"/>
<feGaussianBlur stdDeviation="200" result="effect1_foregroundBlur_217_139"/>
</filter>
<filter id="filter3_f_217_139" x="-580" y="3294" width="1607.54" height="1634.03" filterUnits="userSpaceOnUse" color-interpolation-filters="sRGB">
<feFlood flood-opacity="0" result="BackgroundImageFix"/>
<feBlend mode="normal" in="SourceGraphic" in2="BackgroundImageFix" result="shape"/>
<feGaussianBlur stdDeviation="250" result="effect1_foregroundBlur_217_139"/>
</filter>
<linearGradient id="paint0_linear_217_139" x1="978.856" y1="2315.21" x2="1511.52" y2="3227.03" gradientUnits="userSpaceOnUse">
<stop stop-color="#FE3688"/>
<stop offset="1" stop-color="#73BCFF"/>
</linearGradient>
<clipPath id="clip0_217_139">
<rect width="1440" height="4890" fill="white"/>
</clipPath>
</defs>
</svg>
