<svg width="41" height="40" viewBox="0 0 41 40" fill="none" xmlns="http://www.w3.org/2000/svg">
<path d="M32.3598 5H9.02645C7.1855 5 5.69312 6.49238 5.69312 8.33333V31.6667C5.69312 33.5076 7.1855 35 9.02645 35H32.3598C34.2007 35 35.6931 33.5076 35.6931 31.6667V8.33333C35.6931 6.49238 34.2007 5 32.3598 5ZM14.8598 29.1667C14.8598 29.6269 14.4867 30 14.0264 30H11.5264C11.0662 30 10.6931 29.6269 10.6931 29.1667V17.5C10.6931 17.0398 11.0662 16.6667 11.5264 16.6667H14.0264C14.4867 16.6667 14.8598 17.0398 14.8598 17.5V29.1667ZM12.7764 15C11.3957 15 10.2764 13.8807 10.2764 12.5C10.2764 11.1193 11.3957 10 12.7764 10C14.1572 10 15.2764 11.1193 15.2764 12.5C15.2764 13.8807 14.1572 15 12.7764 15ZM30.6931 29.1667C30.6931 29.6269 30.32 30 29.8598 30H27.3598C26.8995 30 26.5264 29.6269 26.5264 29.1667V22.9167C26.5264 21.536 25.4072 20.4167 24.0264 20.4167C22.6457 20.4167 21.5264 21.536 21.5264 22.9167V29.1667C21.5264 29.6269 21.1534 30 20.6931 30H18.1931C17.7329 30 17.3598 29.6269 17.3598 29.1667V17.5C17.3598 17.0398 17.7329 16.6667 18.1931 16.6667H20.6931C21.1534 16.6667 21.5264 17.0398 21.5264 17.5V18.5C22.5402 16.9573 24.3215 16.0987 26.1598 16.2667C28.7891 16.5909 30.7472 18.8513 30.6931 21.5V29.1667Z" fill="white"/>
</svg>

