<svg width="47" height="34" viewBox="0 0 47 34" fill="none" xmlns="http://www.w3.org/2000/svg">
<path d="M43.7993 6.69599C43.5688 5.77505 43.0993 4.93125 42.4383 4.24982C41.7774 3.56838 40.9482 3.07345 40.0347 2.81501C36.6971 2 23.3465 2 23.3465 2C23.3465 2 9.99594 2 6.65829 2.89263C5.7448 3.15107 4.91568 3.646 4.25469 4.32744C3.5937 5.00887 3.12424 5.85267 2.89374 6.77361C2.2829 10.1608 1.9841 13.597 2.00111 17.0388C1.97934 20.5066 2.27815 23.9689 2.89374 27.3816C3.14786 28.274 3.62784 29.0857 4.28729 29.7383C4.94674 30.391 5.76337 30.8625 6.65829 31.1074C9.99594 32 23.3465 32 23.3465 32C23.3465 32 36.6971 32 40.0347 31.1074C40.9482 30.8489 41.7774 30.354 42.4383 29.6726C43.0993 28.9911 43.5688 28.1473 43.7993 27.2264C44.4054 23.8647 44.7042 20.4547 44.6919 17.0388C44.7137 13.5711 44.4149 10.1087 43.7993 6.69599Z" fill="white" stroke="white" stroke-width="3" stroke-linecap="round" stroke-linejoin="round"/>
<path d="M18.9805 23.3822L30.1383 17.0368L18.9805 10.6914V23.3822Z" fill="#090C32" stroke="#090C32" stroke-width="3" stroke-linecap="round" stroke-linejoin="round"/>
</svg>
